<svg width="40" height="40" viewBox="0 0 40 40" fill="none" xmlns="http://www.w3.org/2000/svg">
<rect width="40" height="40" fill="#1769FF"/>
<path d="M16.2192 13C16.848 13 17.422 13.0593 17.9411 13.1767C18.4602 13.2941 18.9035 13.4869 19.2734 13.7551C19.6432 14.0232 19.9302 14.3791 20.1343 14.824C20.3385 15.2689 20.44 15.8175 20.44 16.4713C20.44 17.1769 20.2883 17.7651 19.9862 18.2359C19.684 18.7068 19.236 19.0923 18.6446 19.3926C19.4588 19.641 20.0666 20.076 20.468 20.6963C20.8693 21.3167 21.0699 22.0656 21.0699 22.9417C21.0699 23.6474 20.9404 24.2591 20.6814 24.7756C20.4225 25.2922 20.0736 25.7136 19.635 26.0398C19.1964 26.3673 18.6971 26.6082 18.1359 26.7652C17.5713 26.9221 16.9891 27.0012 16.4058 27H10V13H16.2192ZM15.8494 18.666C16.3673 18.666 16.7932 18.535 17.1268 18.2742C17.4604 18.0123 17.6273 17.5884 17.6261 17.0002C17.6261 16.6739 17.5701 16.4058 17.4593 16.1969C17.3485 15.9881 17.2003 15.8237 17.0148 15.7063C16.8293 15.5889 16.617 15.5074 16.3767 15.4616C16.1294 15.4159 15.8785 15.3924 15.6265 15.3937H12.9072V18.6685L15.8494 18.666ZM16.0162 24.6063C16.2903 24.6075 16.5633 24.5779 16.8305 24.5186C17.0895 24.4593 17.3181 24.3616 17.5153 24.2245C17.7124 24.0873 17.8699 23.9007 17.9878 23.6659C18.1044 23.4311 18.1639 23.1296 18.1639 22.7638C18.1639 22.0458 17.9726 21.5317 17.5899 21.2253C17.2073 20.9175 16.701 20.7643 16.0722 20.7643H12.9072V24.6075L16.0162 24.6063ZM24.7261 24.3122C25.1204 24.7175 25.6885 24.9202 26.4293 24.9202C26.9601 24.9202 27.4163 24.7793 27.7989 24.4988C28.1816 24.2183 28.4161 23.9205 28.5024 23.6066H30.8158C30.4459 24.8226 29.8778 25.6913 29.1125 26.214C28.3472 26.7368 27.4221 26.9987 26.336 26.9987C25.5835 26.9987 24.9046 26.8715 24.3003 26.6169C23.696 26.3623 23.1838 25.999 22.7638 25.5282C22.3439 25.0574 22.0195 24.4963 21.7921 23.8426C21.5646 23.1889 21.4502 22.4697 21.4502 21.6862C21.4502 20.9287 21.5669 20.223 21.8014 19.5693C22.0359 18.9156 22.3695 18.3509 22.8012 17.8739C23.2328 17.3969 23.7485 17.0212 24.3469 16.7468C24.9454 16.4725 25.6092 16.3353 26.3372 16.3353C27.1514 16.3353 27.8607 16.5022 28.4662 16.8358C29.0705 17.1695 29.5675 17.6168 29.956 18.1791C30.3445 18.7414 30.6256 19.3815 30.7983 20.1007C30.9709 20.8199 31.0328 21.5713 30.9838 22.356H24.0798C24.1159 23.2544 24.3318 23.9081 24.7261 24.3122ZM27.6974 18.9799C27.3824 18.6141 26.9041 18.4312 26.2625 18.4312C25.8425 18.4312 25.4937 18.5066 25.2172 18.6561C24.9396 18.8069 24.7179 18.9922 24.5511 19.2147C24.3843 19.4371 24.2676 19.6719 24.1999 19.9203C24.1323 20.1687 24.0914 20.3911 24.0798 20.5864H28.3554C28.2306 19.882 28.0112 19.3457 27.6974 18.9799ZM23.6295 13.7106H28.9714V15.28H23.6295V13.7106Z" fill="white"/>
</svg>
