<svg width="40" height="40" viewBox="0 0 40 40" fill="none" xmlns="http://www.w3.org/2000/svg">
<rect width="40" height="40" fill="#E84C88"/>
<path fill-rule="evenodd" clip-rule="evenodd" d="M20 9C13.9273 9 9 13.9273 9 20C9 26.0727 13.9273 31 20 31C26.0607 31 31 26.0727 31 20C31 13.9273 26.0607 9 20 9ZM27.2657 14.0705C28.5781 15.6692 29.3655 17.7093 29.3894 19.9165C29.0792 19.8568 25.9772 19.2245 22.8514 19.6182C22.7798 19.4631 22.7202 19.2961 22.6486 19.1291C22.4577 18.6757 22.2429 18.2104 22.0282 17.769C25.4881 16.3612 27.0629 14.333 27.2657 14.0705ZM20 10.6226C22.3861 10.6226 24.5694 11.5174 26.2278 12.9848C26.0607 13.2234 24.641 15.1204 21.3004 16.3731C19.7614 13.5456 18.0553 11.231 17.7928 10.8731C18.4967 10.7061 19.2364 10.6226 20 10.6226ZM16.0033 11.5054C16.2538 11.8395 17.9241 14.166 19.487 16.9338C15.0965 18.103 11.2191 18.0792 10.8015 18.0792C11.41 15.1681 13.3785 12.7462 16.0033 11.5054ZM10.5987 20.0119C10.5987 19.9165 10.5987 19.8211 10.5987 19.7256C11.0043 19.7375 15.5618 19.7972 20.2505 18.3894C20.5249 18.9143 20.7755 19.4512 21.0141 19.9881C20.8948 20.0239 20.7636 20.0597 20.6442 20.0954C15.8004 21.6584 13.2234 25.9295 13.0087 26.2874C11.5174 24.6291 10.5987 22.4219 10.5987 20.0119ZM20 29.4013C17.8286 29.4013 15.8243 28.6616 14.2375 27.4208C14.4046 27.0748 16.3135 23.4002 21.6106 21.551C21.6345 21.5391 21.6464 21.5391 21.6703 21.5271C22.9946 24.9512 23.5315 27.8265 23.6746 28.6497C22.5412 29.1388 21.3004 29.4013 20 29.4013ZM25.2375 27.7907C25.1421 27.218 24.641 24.474 23.4122 21.0976C26.359 20.6323 28.936 21.3959 29.2581 21.5033C28.8525 24.116 27.3492 26.3709 25.2375 27.7907Z" fill="white"/>
</svg>
