<svg width="40" height="40" viewBox="0 0 40 40" fill="none" xmlns="http://www.w3.org/2000/svg">
<rect width="40" height="40" fill="#24292F"/>
<path fill-rule="evenodd" clip-rule="evenodd" d="M20.0091 9C13.9214 9 9 14.0416 9 20.2788C9 25.2646 12.1533 29.4849 16.5277 30.9786C17.0746 31.0909 17.275 30.7359 17.275 30.4373C17.275 30.1758 17.2569 29.2796 17.2569 28.3457C14.1945 29.0181 13.5567 27.0012 13.5567 27.0012C13.0646 25.694 12.3354 25.3581 12.3354 25.3581C11.333 24.6671 12.4084 24.6671 12.4084 24.6671C13.5202 24.7419 14.1037 25.8249 14.1037 25.8249C15.0877 27.5427 16.6735 27.0573 17.3115 26.7585C17.4025 26.0302 17.6943 25.5261 18.0042 25.246C15.5617 24.9845 12.9918 24.0136 12.9918 19.6812C12.9918 18.4487 13.429 17.4404 14.1217 16.6562C14.0124 16.3762 13.6295 15.2182 14.2312 13.6683C14.2312 13.6683 15.1608 13.3695 17.2567 14.8261C18.1541 14.5792 19.0795 14.4536 20.0091 14.4525C20.9387 14.4525 21.8862 14.5834 22.7613 14.8261C24.8574 13.3695 25.787 13.6683 25.787 13.6683C26.3887 15.2182 26.0056 16.3762 25.8963 16.6562C26.6073 17.4404 27.0264 18.4487 27.0264 19.6812C27.0264 24.0136 24.4565 24.9657 21.9958 25.246C22.3969 25.6008 22.743 26.2729 22.743 27.3374C22.743 28.8499 22.725 30.0638 22.725 30.4371C22.725 30.7359 22.9255 31.0909 23.4722 30.9788C27.8467 29.4847 31 25.2646 31 20.2788C31.018 14.0416 26.0786 9 20.0091 9Z" fill="white"/>
</svg>
