<svg width="40" height="40" viewBox="0 0 40 40" fill="none" xmlns="http://www.w3.org/2000/svg">
<rect width="40" height="40" fill="#0077B5"/>
<path fill-rule="evenodd" clip-rule="evenodd" d="M15.6454 11.9033C15.6454 12.9408 14.8554 13.7805 13.62 13.7805C12.4326 13.7805 11.6426 12.9408 11.6671 11.9033C11.6426 10.8153 12.4326 10 13.6436 10C14.8554 10 15.6217 10.8153 15.6454 11.9033ZM11.7664 27.3492V15.2635H15.5224V27.3484L11.7664 27.3492Z" fill="white"/>
<path fill-rule="evenodd" clip-rule="evenodd" d="M18.5329 19.1205C18.5329 17.6131 18.4833 16.3279 18.4336 15.2652H21.6961L21.8695 16.9208H21.9437C22.438 16.1545 23.6734 14.9939 25.6753 14.9939C28.1462 14.9939 29.9998 16.6252 29.9998 20.1825V27.3508H26.2437V20.6532C26.2437 19.0953 25.7005 18.0333 24.3413 18.0333C23.3029 18.0333 22.6855 18.7499 22.4388 19.4414C22.3394 19.689 22.2905 20.0343 22.2905 20.3812V27.3508H18.5344V19.1205H18.5329Z" fill="white"/>
</svg>
