<svg width="40" height="40" viewBox="0 0 40 40" fill="none" xmlns="http://www.w3.org/2000/svg">
<rect width="40" height="40" fill="#353535"/>
<path fill-rule="evenodd" clip-rule="evenodd" d="M18.5139 9.48521C19.3344 9.04089 20.6639 9.04034 21.4861 9.48521L28.5139 13.2873C29.3344 13.7316 30 14.8441 30 15.7708V23.2347C30 24.162 29.3361 25.2728 28.5139 25.7177L21.4861 29.5198C20.6656 29.9641 19.3361 29.9652 18.5139 29.5198L11.4861 25.7177C10.6656 25.2733 10 24.1609 10 23.2347V15.7708C10 14.8435 10.6639 13.7327 11.4861 13.2873L18.5139 9.48521V9.48521Z" fill="white"/>
<path d="M29.7211 18.5108C32.3285 18.5108 34.4422 16.3817 34.4422 13.7554C34.4422 11.1291 32.3285 9 29.7211 9C27.1137 9 25 11.1291 25 13.7554C25 16.3817 27.1137 18.5108 29.7211 18.5108Z" fill="#2F8BE6"/>
<path fill-rule="evenodd" clip-rule="evenodd" d="M22.8962 21.9575V16.9899C22.8962 16.5401 23.2384 16.1842 23.6707 16.1842C24.1029 16.1842 24.4446 16.5401 24.4446 16.9899V21.9581C24.4446 22.4074 24.1029 22.7633 23.6707 22.7633C23.2384 22.7633 22.8962 22.4074 22.8962 21.9575V21.9575ZM21.6879 19.5088C21.6879 21.7277 20.4912 22.8158 18.6018 22.8158C16.7112 22.8158 15.5557 21.7172 15.5557 19.5608V16.9899C15.5557 16.5401 15.8973 16.1842 16.3296 16.1842C16.7618 16.1842 17.104 16.5401 17.104 16.9899V19.5193C17.104 20.7125 17.6762 21.3298 18.6218 21.3298C19.5662 21.3298 20.1396 20.7329 20.1396 19.5713V16.9905C20.1396 16.5401 20.4812 16.1842 20.9134 16.1842C21.3457 16.1842 21.6879 16.5401 21.6879 16.9899V19.5088Z" fill="#353535"/>
<path fill-rule="evenodd" clip-rule="evenodd" d="M29.7224 15.6316C28.9252 15.6316 28.3335 15.2016 28.3335 14.5462V14.5352C28.3335 14.0787 28.5341 13.8101 28.9146 13.6277C28.6368 13.4503 28.4568 13.2083 28.4568 12.8054V12.7944C28.4568 12.2202 28.9613 11.7632 29.7224 11.7632C30.4835 11.7632 30.9879 12.2147 30.9879 12.7949V12.806C30.9879 13.2083 30.8079 13.4503 30.5302 13.6277C30.8952 13.8267 31.1113 14.0682 31.1113 14.5142V14.5252C31.1113 15.2226 30.5196 15.6316 29.7224 15.6316ZM29.7224 13.3536C30.0363 13.3536 30.2368 13.1602 30.2368 12.8966V12.8855C30.2368 12.6551 30.0463 12.4457 29.7224 12.4457C29.3985 12.4457 29.2079 12.6501 29.2079 12.8806V12.8916C29.2079 13.1547 29.4085 13.3536 29.7224 13.3536ZM29.7224 14.9491C30.1135 14.9491 30.3446 14.7446 30.3446 14.4815V14.471C30.3446 14.1809 30.0824 14.009 29.7224 14.009C29.3624 14.009 29.1002 14.1809 29.1002 14.471V14.4821C29.1002 14.7396 29.3313 14.9491 29.7224 14.9491Z" fill="white"/>
</svg>
