<svg width="64" height="64" viewBox="0 0 64 64" fill="none" xmlns="http://www.w3.org/2000/svg">
<g clip-path="url(#clip0_41390_50733)">
<circle cx="32" cy="32" r="32" fill="white"/>
<path d="M49.8186 32.5556C48.4685 35.9935 46.4971 39.1165 44.0435 41.7913C43.791 41.6524 43.5386 41.5105 43.2889 41.3687C40.5006 39.7916 37.8173 38.0471 35.2559 36.1466C35.3636 36.1069 35.4714 36.07 35.5792 36.0332C37.4457 36.938 39.539 37.4429 41.7515 37.4429C43.0336 37.4429 44.2505 37.1593 45.3398 36.6487C47.1268 35.8233 48.5734 34.3908 49.4272 32.6151C49.5577 32.5924 49.6882 32.5726 49.8186 32.5556Z" fill="#050884"/>
<path d="M51.8751 21.6604C51.8751 21.7087 51.8751 21.754 51.8723 21.8023C51.8581 25.5976 51.1291 29.2226 49.8186 32.5556C49.6882 32.5726 49.5577 32.5924 49.4272 32.6151C48.2586 32.7882 47.0983 32.9924 45.9466 33.2222C42.3981 33.9228 38.9348 34.8674 35.5792 36.0332C35.4714 36.07 35.3636 36.1069 35.2559 36.1466C34.6432 35.6928 34.0389 35.2333 33.4404 34.7567C36.45 32.3854 39.2809 29.7985 41.9075 27.0187C42.767 26.111 43.6037 25.1806 44.4178 24.2332C44.6845 23.924 44.9511 23.6091 45.2121 23.2943C45.6205 22.8036 46.0261 22.3043 46.4233 21.8023C47.5097 20.4322 48.5478 19.0225 49.5378 17.5815H49.5406C49.7761 17.2298 50.0711 17.0199 50.3887 17.0199C51.0724 17.0199 51.6453 17.9928 51.7786 19.2863C51.7872 19.377 51.7957 19.4706 51.7985 19.5671C51.8496 20.2592 51.8751 20.957 51.8751 21.6604Z" fill="#050884"/>
<path d="M44.0435 41.7913C42.577 43.3883 40.9373 44.8264 39.1588 46.0717C37.3831 47.3169 35.4685 48.3693 33.4375 49.2061C33.3893 49.2259 33.3411 49.2458 33.29 49.2656C31.4888 49.8528 29.5656 50.1705 27.5687 50.1705C23.7252 50.1705 20.154 48.9933 17.2012 46.9822L17.2097 46.9709C16.8296 46.7184 16.5828 46.2873 16.5828 45.7965C16.5828 45.7767 16.5828 45.754 16.5856 45.7341C16.6055 45.2264 16.8948 44.7896 17.3146 44.5541C17.343 44.54 17.3713 44.5258 17.4025 44.5116C17.4281 44.5002 17.4536 44.4889 17.482 44.4776C17.4876 44.4747 17.4905 44.4719 17.4933 44.4719C19.3115 43.6464 21.0929 42.7501 22.8317 41.7913C17.9982 36.5211 15.0369 29.5091 15.0028 21.8023C15 21.754 15 21.7087 15 21.6604C15 21.0534 15.017 20.4492 15.0567 19.8536V19.8365C15.0709 19.5529 15.0936 19.2721 15.1191 18.9941C15.122 18.9884 15.122 18.9856 15.122 18.9827C15.1929 18.5317 15.3177 18.1289 15.4822 17.8084C15.7403 17.3092 16.0864 17 16.475 17H16.4807C16.7728 17.0028 17.0423 17.1815 17.2664 17.485H17.2692C18.2819 18.96 19.3427 20.401 20.4518 21.8023C23.9805 26.2585 27.9828 30.3232 32.388 33.9143C32.7 34.1894 33.0234 34.4532 33.3609 34.6972C33.3864 34.717 33.412 34.7369 33.4375 34.7567L33.4404 34.7567C34.0389 35.2333 34.6432 35.6928 35.2559 36.1466C37.8173 38.0471 40.5006 39.7916 43.2889 41.3687C43.5386 41.5105 43.791 41.6524 44.0435 41.7913Z" fill="#050884"/>
</g>
<defs>
<clipPath id="clip0_41390_50733">
<rect width="64" height="64" rx="32" fill="white"/>
</clipPath>
</defs>
</svg>
