<svg width="80" height="80" viewBox="0 0 80 80" fill="none" xmlns="http://www.w3.org/2000/svg">
<g clip-path="url(#clip0_41688_33643)">
<path d="M71.0737 8.92628C76.7891 14.6417 80 22.3934 80 30.4762C80 43.6107 74.7823 56.2073 65.4948 65.4948C56.2073 74.7823 43.6107 80 30.4762 80C22.3934 80 14.6417 76.7891 8.92627 71.0737C3.21088 65.3583 0 57.6066 0 49.5238C1.14691e-05 36.3893 5.21769 23.7927 14.5052 14.5052C23.7927 5.21767 36.3893 0 49.5238 0C57.6066 5.71649e-06 65.3583 3.21088 71.0737 8.92628Z" fill="white"/>
<path fill-rule="evenodd" clip-rule="evenodd" d="M42.5752 59.0797C37.8775 61.0175 32.7299 62.0864 27.3327 62.0864C24.3736 62.0864 21.4896 61.7651 18.7135 61.1554C22.3256 57.5643 26.0371 54.0731 29.8436 50.6864C22.5437 43.5476 17.9659 33.6367 17.8125 22.6562C26.3934 27.9987 34.6577 33.8019 42.5707 40.0313C43.3847 40.672 44.1949 41.3173 45.0014 41.967C45.0059 41.9707 45.0105 41.9744 45.015 41.978C45.0195 41.9816 45.024 41.9852 45.0284 41.9888C48.1467 44.5017 51.2088 47.0815 54.2126 49.726C51.4069 53.9277 47.3503 57.2231 42.5752 59.0797Z" fill="#050884"/>
<path fill-rule="evenodd" clip-rule="evenodd" d="M46.4671 43.1561C52.4436 40.6864 58.5264 38.4219 64.7067 36.3713C66.3392 32.1027 67.2614 27.4828 67.3288 22.6562C58.748 27.9986 50.4838 33.8018 42.5708 40.0311C43.8793 41.0611 45.178 42.1029 46.4671 43.1561Z" fill="#050884"/>
</g>
<defs>
<clipPath id="clip0_41688_33643">
<rect width="80" height="80" fill="white"/>
</clipPath>
</defs>
</svg>
