<svg width="64" height="64" viewBox="0 0 64 64" fill="none" xmlns="http://www.w3.org/2000/svg">
<path d="M42.6683 40.1663C41.2018 41.7633 39.5623 43.2014 37.7838 44.4467C36.0081 45.6919 34.0935 46.7443 32.0625 47.5811C32.0143 47.6009 31.9661 47.6208 31.915 47.6406C30.1138 48.2278 28.1906 48.5455 26.1937 48.5455C22.3502 48.5455 18.779 47.3683 15.8262 45.3572L15.8347 45.3459C15.4546 45.0934 15.2078 44.6623 15.2078 44.1715C15.2078 44.1517 15.2078 44.129 15.2106 44.1091C15.2305 43.6014 15.5198 43.1646 15.9396 42.9291C15.968 42.915 15.9964 42.9008 16.0275 42.8866C16.0531 42.8752 16.0786 42.8639 16.107 42.8526C16.1091 42.8515 16.1109 42.8504 16.1124 42.8495C16.1148 42.848 16.1166 42.8469 16.1183 42.8469C17.9365 42.0214 19.7179 41.1251 21.4567 40.1663C16.6232 34.8961 13.6619 27.8841 13.6278 20.1773C13.625 20.129 13.625 20.0837 13.625 20.0354C13.625 19.4284 13.642 18.8242 13.6817 18.2286V18.2115C13.6959 17.9279 13.7186 17.6471 13.7441 17.3691C13.747 17.3634 13.747 17.3606 13.747 17.3577C13.8179 16.9067 13.9427 16.5039 14.1072 16.1834C14.3653 15.6842 14.7114 15.375 15.1 15.375H15.1057C15.3978 15.3778 15.6673 15.5565 15.8914 15.86H15.8942C16.9069 17.335 17.9677 18.776 19.0768 20.1773C22.6055 24.6335 26.6078 28.6982 31.013 32.2893C31.325 32.5644 31.6484 32.8282 31.9859 33.0722L32.0625 33.1317H32.0653C32.6638 33.6083 33.268 34.0678 33.8807 34.5216C36.4421 36.4221 39.1255 38.1666 41.9138 39.7437C42.1634 39.8855 42.4159 40.0274 42.6683 40.1663Z" fill="#050884"/>
<path d="M48.4436 30.9306C47.0935 34.3685 45.1219 37.4915 42.6683 40.1663C42.4159 40.0274 42.1634 39.8855 41.9138 39.7437C39.1255 38.1666 36.4421 36.4221 33.8807 34.5216C33.9885 34.4819 34.0964 34.445 34.2042 34.4082C36.0707 35.313 38.164 35.8179 40.3765 35.8179C41.6586 35.8179 42.8755 35.5343 43.9648 35.0237C45.7518 34.1983 47.1984 32.7658 48.0522 30.9901C48.0522 30.9901 48.0522 30.9901 48.0522 30.9901C46.8836 31.1632 45.7234 31.3674 44.5717 31.5972C41.0232 32.2978 37.5598 33.2424 34.2042 34.4082C34.0964 34.445 33.9885 34.4819 33.8807 34.5216C33.268 34.0678 32.6638 33.6083 32.0653 33.1317C35.0749 30.7604 37.9059 28.1735 40.5325 25.3937C41.392 24.486 42.2287 23.5556 43.0428 22.6082C43.3095 22.299 43.5761 21.9841 43.8371 21.6693C44.2455 21.1786 44.6511 20.6793 45.0483 20.1773C46.1347 18.8072 47.1728 17.3974 48.1628 15.9565H48.1656C48.4011 15.6048 48.6961 15.3949 49.0137 15.3949C49.6974 15.3949 50.2703 16.3678 50.4036 17.6612C50.4122 17.752 50.4207 17.8456 50.4235 17.9421C50.4746 18.6342 50.5001 19.332 50.5001 20.0354C50.5001 20.0837 50.5001 20.129 50.4973 20.1773C50.4831 23.9725 49.7541 27.5976 48.4436 30.9306C48.4437 30.9306 48.4436 30.9306 48.4436 30.9306Z" fill="#050884"/>
</svg>
