<svg width="72" height="72" viewBox="0 0 72 72" fill="none" xmlns="http://www.w3.org/2000/svg">
<g clip-path="url(#clip0_43694_119199)">
<path fill-rule="evenodd" clip-rule="evenodd" d="M33.5556 53.0679C38.2307 51.9307 42.5704 49.2694 45.7626 45.1836C45.874 45.0409 45.9834 44.8974 46.0908 44.7529C36.1173 36.3595 25.7266 28.446 14.9543 21.0479C17.5316 33.6993 24.2165 44.8571 33.5556 53.0679Z" fill="#050884"/>
<path fill-rule="evenodd" clip-rule="evenodd" d="M52.1627 34.9899C47.7076 35.9262 43.4402 37.3724 39.4243 39.2647C38.267 38.3326 37.1044 37.4068 35.9365 36.4874C42.755 31.1198 49.7528 25.9697 56.9195 21.0479C55.9461 25.8224 54.364 30.5099 52.1627 34.9899Z" fill="#050884"/>
<path fill-rule="evenodd" clip-rule="evenodd" d="M25.0402 45.373C22.7444 47.3147 20.4707 49.2818 18.2198 51.274C23.0375 53.7434 28.4929 54.2992 33.5551 53.068C31.5148 51.2741 29.6011 49.3396 27.8293 47.2795C26.8804 46.6705 25.9503 46.0346 25.0402 45.373Z" fill="#050884"/>
</g>
<defs>
<clipPath id="clip0_43694_119199">
<rect width="72" height="72" rx="3" fill="white"/>
</clipPath>
</defs>
</svg>
