<svg width="64" height="64" viewBox="0 0 64 64" fill="none" xmlns="http://www.w3.org/2000/svg">
<path d="M51.8066 16.2279C51.7526 20.089 51.0149 23.7849 49.7089 27.1997C44.7645 28.8402 39.8981 30.6519 35.1168 32.6276C34.0856 31.7852 33.0467 30.9519 32 30.1279C38.3304 25.1444 44.9418 20.5018 51.8066 16.2279Z" fill="#050884"/>
<path d="M19.8095 47.7721C24.1273 47.7721 28.2453 46.9169 32.0035 45.3668C35.8236 43.8814 39.0689 41.2451 41.3134 37.8837C38.9104 35.7682 36.4607 33.7043 33.9661 31.694L33.9554 31.6854L33.9445 31.6766C33.2993 31.1568 32.6512 30.6405 32 30.1279C25.6696 25.1444 19.0581 20.5019 12.1934 16.228C12.3161 25.0124 15.9783 32.941 21.8183 38.6521C18.7731 41.3615 15.8039 44.1544 12.9142 47.0273C15.135 47.515 17.4422 47.7721 19.8095 47.7721Z" fill="#050884"/>
</svg>
