<svg width="32" height="32" viewBox="0 0 32 32" fill="none" xmlns="http://www.w3.org/2000/svg">
<path d="M28 16H25.3333M28 16C28 19.3137 26.6569 22.3137 24.4853 24.4853M28 16C28 12.6863 26.6569 9.68629 24.4853 7.51472M16 28V25.3333M16 28C19.3137 28 22.3137 26.6569 24.4853 24.4853M16 28C12.6863 28 9.68629 26.6569 7.51472 24.4853M4 16H6.66667M4 16C4 12.6863 5.34315 9.68629 7.51472 7.51472M4 16C4 19.3137 5.34315 22.3137 7.51472 24.4853M16 4V6.66667M16 4C19.3137 4 22.3137 5.34315 24.4853 7.51472M16 4C12.6863 4 9.68629 5.34315 7.51472 7.51472M22.6667 22.6667L24.4853 24.4853M9.33333 22.6667L7.51472 24.4853M22.6667 9.33333L24.4853 7.51472M9.33333 9.33333L7.51472 7.51472" stroke="#050884" stroke-width="1.5" stroke-linecap="round" stroke-linejoin="round"/>
<path d="M16.0001 10.6666V16L12.6667 19.3333" stroke="#050884" stroke-width="1.5" stroke-linecap="round"/>
</svg>
