<svg width="32" height="32" viewBox="0 0 32 32" fill="none" xmlns="http://www.w3.org/2000/svg">
<path d="M11.4167 4C11.4167 3.58579 11.081 3.25 10.6667 3.25C10.2525 3.25 9.91675 3.58579 9.91675 4H11.4167ZM22.0834 4C22.0834 3.58579 21.7476 3.25 21.3334 3.25C20.9192 3.25 20.5834 3.58579 20.5834 4H22.0834ZM10.6667 4H9.91675V6.66667H10.6667H11.4167V4H10.6667ZM21.3334 4H20.5834V6.66667H21.3334H22.0834V4H21.3334Z" fill="#050884"/>
<path d="M5.33325 12H26.6666" stroke="#050884" stroke-width="1.5"/>
<path d="M6 6.08337H26C26.6904 6.08337 27.25 6.64302 27.25 7.33337V24.3334C27.25 26.6806 25.3472 28.5834 23 28.5834H9C6.65279 28.5834 4.75 26.6806 4.75 24.3334V7.33337C4.75 6.64302 5.30964 6.08337 6 6.08337Z" stroke="#050884" stroke-width="1.5"/>
</svg>
