<svg width="24" height="24" viewBox="0 0 24 24" fill="none" xmlns="http://www.w3.org/2000/svg">
<path d="M8 12C8.55229 12 9 11.5523 9 11C9 10.4477 8.55229 10 8 10C7.44772 10 7 10.4477 7 11C7 11.5523 7.44772 12 8 12Z" fill="black"/>
<path d="M13 11C13 11.5523 12.5523 12 12 12C11.4477 12 11 11.5523 11 11C11 10.4477 11.4477 10 12 10C12.5523 10 13 10.4477 13 11Z" fill="black"/>
<path d="M16 12C16.5523 12 17 11.5523 17 11C17 10.4477 16.5523 10 16 10C15.4477 10 15 10.4477 15 11C15 11.5523 15.4477 12 16 12Z" fill="black"/>
<path fill-rule="evenodd" clip-rule="evenodd" d="M17 19H15L12.7071 21.2929C12.3166 21.6834 11.6834 21.6834 11.2929 21.2929L9 19H7C4.23858 19 2 16.7614 2 14V8C2 5.23858 4.23858 3 7 3H17C19.7614 3 22 5.23858 22 8V14C22 16.7614 19.7614 19 17 19ZM14.3787 17.5L12 19.8787L9.62132 17.5H7C5.067 17.5 3.5 15.933 3.5 14V8C3.5 6.067 5.067 4.5 7 4.5H17C18.933 4.5 20.5 6.067 20.5 8V14C20.5 15.933 18.933 17.5 17 17.5H14.3787Z" fill="black"/>
</svg>
