<svg width="24" height="24" viewBox="0 0 24 24" fill="none" xmlns="http://www.w3.org/2000/svg">
<path fill-rule="evenodd" clip-rule="evenodd" d="M2.25 5C2.25 3.48122 3.48122 2.25 5 2.25H5.5C5.91421 2.25 6.25 2.58579 6.25 3C6.25 3.41421 5.91421 3.75 5.5 3.75H5C4.30964 3.75 3.75 4.30964 3.75 5V6.25H5C5.41421 6.25 5.75 6.58579 5.75 7V9C5.75 9.41421 5.41421 9.75 5 9.75H3C2.58579 9.75 2.25 9.41421 2.25 9V5ZM8.25 5C8.25 3.48122 9.48122 2.25 11 2.25H11.5C11.9142 2.25 12.25 2.58579 12.25 3C12.25 3.41421 11.9142 3.75 11.5 3.75H11C10.3096 3.75 9.75 4.30964 9.75 5V6.25H11C11.4142 6.25 11.75 6.58579 11.75 7V9C11.75 9.41421 11.4142 9.75 11 9.75H9C8.58579 9.75 8.25 9.41421 8.25 9V5Z" fill="black"/>
</svg>
