<svg width="24" height="24" viewBox="0 0 24 24" fill="none" xmlns="http://www.w3.org/2000/svg">
<path fill-rule="evenodd" clip-rule="evenodd" d="M16.0768 8.11865C15.7145 8.06582 15.4015 7.83793 15.2399 7.50939L13.0556 3.0673C12.6247 2.19094 11.3753 2.19094 10.9444 3.06731L8.76008 7.50939C8.59853 7.83793 8.28552 8.06582 7.92324 8.11865L3.00787 8.83552C2.04434 8.97604 1.65896 10.1595 2.35499 10.8404L5.91789 14.3261C6.17865 14.5812 6.29759 14.9481 6.23614 15.3077L5.39834 20.2103C5.23403 21.1719 6.24411 21.9041 7.10687 21.4489L11.4814 19.1406C11.8059 18.9694 12.1941 18.9694 12.5186 19.1406L16.8931 21.4489C17.7559 21.9041 18.766 21.1719 18.6017 20.2103L17.7639 15.3077C17.7024 14.9481 17.8214 14.5812 18.0821 14.3261L21.645 10.8404C22.341 10.1595 21.9557 8.97604 20.9921 8.83552L16.0768 8.11865Z" fill="black"/>
</svg>
